<?xml version="1.0" encoding="UTF-8"?>
<!DOCTYPE svg PUBLIC "-//W3C//DTD SVG 1.1//EN" "http://www.w3.org/Graphics/SVG/1.1/DTD/svg11.dtd">
<!-- Creator: CorelDRAW 2021 (64-Bit) -->
<svg xmlns="http://www.w3.org/2000/svg" xml:space="preserve" width="148mm" height="105mm" version="1.1" style="shape-rendering:geometricPrecision; text-rendering:geometricPrecision; image-rendering:optimizeQuality; fill-rule:evenodd; clip-rule:evenodd"
viewBox="0 0 14800 10500"
 xmlns:xlink="http://www.w3.org/1999/xlink"
 xmlns:xodm="http://www.corel.com/coreldraw/odm/2003">
 <defs>
  <style type="text/css">
   <![CDATA[
    .str0 {stroke:#FEFEFE;stroke-width:500;stroke-linecap:round;stroke-linejoin:round;stroke-miterlimit:22.9256}
    .fil1 {fill:none}
    .fil0 {fill:#00CCFF}
   ]]>
  </style>
 </defs>
 <g id="Layer_x0020_1">
  <metadata id="CorelCorpID_0Corel-Layer"/>
  <g id="_1779638895360">
   <circle class="fil0" cx="7112.43" cy="5158.57" r="5068.35"/>
   <circle class="fil0 str0" cx="5761.87" cy="7666.18" r="515.3"/>
   <circle class="fil0 str0" cx="8909.86" cy="7647.44" r="515.3"/>
   <line class="fil1 str0" x1="9627.65" y1="7144.54" x2="5192.21" y2= "7048.11" />
   <line class="fil1 str0" x1="5642.17" y1="6223.16" x2="5173.93" y2= "7048.11" />
   <polyline class="fil1 str0" points="5642.17,6223.16 4696.26,3266.3 3888.53,2642.76 "/>
   <line class="fil1 str0" x1="9854.93" y1="3587.28" x2="4696.26" y2= "3266.3" />
   <line class="fil1 str0" x1="9854.93" y1="3587.28" x2="9501.33" y2= "5344.61" />
   <polyline class="fil1 str0" points="9501.33,5344.61 9470.76,5499.07 9363.36,5672.73 9249.45,5777.19 9131.21,5841.29 8928.04,5917.88 "/>
   <line class="fil1 str0" x1="8928.04" y1="5917.88" x2="5642.17" y2= "6223.16" />
   <line class="fil1 str0" x1="5169.23" y1="4744.72" x2="9622.04" y2= "4744.72" />
   <line class="fil1 str0" x1="5992.99" y1="3346.99" x2="6478.13" y2= "6145.49" />
   <line class="fil1 str0" x1="7355.22" y1="3431.75" x2="7355.22" y2= "6000.4" />
   <line class="fil1 str0" x1="8656.58" y1="3512.71" x2="8430.09" y2= "5964.14" />
  </g>
 </g>
</svg>
